<?xml version="1.0" encoding="UTF-8" standalone="no"?>
<!-- Created with Inkscape (http://www.inkscape.org/) -->

<svg
   xmlns:dc="http://purl.org/dc/elements/1.1/"
   xmlns:cc="http://creativecommons.org/ns#"
   xmlns:rdf="http://www.w3.org/1999/02/22-rdf-syntax-ns#"
   xmlns:svg="http://www.w3.org/2000/svg"
   xmlns="http://www.w3.org/2000/svg"
   xmlns:sodipodi="http://sodipodi.sourceforge.net/DTD/sodipodi-0.dtd"
   xmlns:inkscape="http://www.inkscape.org/namespaces/inkscape"
   width="744.09448819"
   height="1052.3622047"
   id="svg2"
   version="1.1"
   inkscape:version="0.48.2 r9819"
   sodipodi:docname="New document 1">
  <sodipodi:namedview
     id="base"
     pagecolor="#ffffff"
     bordercolor="#666666"
     borderopacity="1.0"
     inkscape:pageopacity="0.0"
     inkscape:pageshadow="2"
     inkscape:zoom="0.60115274"
     inkscape:cx="738.57143"
     inkscape:cy="575.71429"
     inkscape:document-units="px"
     inkscape:current-layer="layer1"
     showgrid="false"
     inkscape:window-width="1440"
     inkscape:window-height="814"
     inkscape:window-x="0"
     inkscape:window-y="0"
     inkscape:window-maximized="1"
     showguides="true"
     inkscape:guide-bbox="true">
    <sodipodi:guide
       position="0,0"
       orientation="0,744.09448"
       id="guide3068" />
    <sodipodi:guide
       position="744.09448,0"
       orientation="-1052.3622,0"
       id="guide3070" />
    <sodipodi:guide
       position="744.09448,1052.3622"
       orientation="0,-744.09448"
       id="guide3072" />
    <sodipodi:guide
       position="0,1052.3622"
       orientation="1052.3622,0"
       id="guide3074" />
    <inkscape:grid
       type="xygrid"
       id="grid3076" />
  </sodipodi:namedview>
  <defs
     id="defs4" />
  <metadata
     id="metadata7">
    <rdf:RDF>
      <cc:Work
         rdf:about="">
        <dc:format>image/svg+xml</dc:format>
        <dc:type
           rdf:resource="http://purl.org/dc/dcmitype/StillImage" />
        <dc:title></dc:title>
      </cc:Work>
    </rdf:RDF>
  </metadata>
  <g
     id="layer1"
     inkscape:groupmode="layer"
     inkscape:label="Layer 1">
    <path
       id="path2990"
       d="M 276.377955289,655.511808909 L 320.255909,655.511808909 L 320.255909,630.708659725 L 358.877956305,630.708659725 L 358.877956305,655.511808909 L 401.161421796,655.511808909 L 401.161421796,630.708659725 L 439.783469101,630.708659725 L 439.783469101,655.511808909 L 482.066934592,655.511808909 L 482.066934592,630.708659725 L 520.688981897,630.708659725 L 520.688981897,655.511808909 L 562.972447388,655.511808909 L 562.972447388,630.708659725 L 601.594494693,630.708659725 L 601.594494693,655.511808909 L 643.877960184,655.511808909 L 643.877960184,630.708659725 L 682.500007489,630.708659725 L 682.500007489,655.511808909 L 726.3779612,655.511808909 "
       style="stroke:#000000;fill:none"
       inkscape:label="part" />
    <path
       id="path2992"
       d="M 726.3779612,655.511808909 L 726.3779612,677.185038553 L 701.574812016,677.185038553 L 701.574812016,709.42913298 L 726.3779612,709.42913298 L 726.3779612,757.500000027 L 701.574812016,757.500000027 L 701.574812016,789.744094455 L 726.3779612,789.744094455 L 726.3779612,811.417324099 "
       style="stroke:#000000;fill:none"
       inkscape:label="part" />
    <path
       id="path2994"
       d="M 726.3779612,811.417324099 L 682.500007489,811.417324099 L 682.500007489,836.220473282 L 643.877960184,836.220473282 L 643.877960184,811.417324099 L 601.594494693,811.417324099 L 601.594494693,836.220473282 L 562.972447388,836.220473282 L 562.972447388,811.417324099 L 520.688981897,811.417324099 L 520.688981897,836.220473282 L 482.066934592,836.220473282 L 482.066934592,811.417324099 L 439.783469101,811.417324099 L 439.783469101,836.220473282 L 401.161421796,836.220473282 L 401.161421796,811.417324099 L 358.877956305,811.417324099 L 358.877956305,836.220473282 L 320.255909,836.220473282 L 320.255909,811.417324099 L 276.377955289,811.417324099 "
       style="stroke:#000000;fill:none"
       inkscape:label="part" />
    <path
       id="path2996"
       d="M 276.377955289,811.417324099 L 276.377955289,789.744094455 L 301.181104473,789.744094455 L 301.181104473,757.500000027 L 276.377955289,757.500000027 L 276.377955289,709.42913298 L 301.181104473,709.42913298 L 301.181104473,677.185038553 L 276.377955289,677.185038553 L 276.377955289,655.511808909 "
       style="stroke:#000000;fill:none"
       inkscape:label="part" />
    <path
       id="path2998"
       d="M 60.2362200498,301.181104473 L 78.7204732551,301.181104473 L 78.7204732551,276.377955289 L 117.34252056,276.377955289 L 117.34252056,301.181104473 L 159.03543473,301.181104473 L 159.03543473,276.377955289 L 197.657482034,276.377955289 L 197.657482034,301.181104473 L 216.141735239,301.181104473 "
       style="stroke:#000000;fill:none"
       inkscape:label="part" />
    <path
       id="path3000"
       d="M 216.141735239,301.181104473 L 216.141735239,327.933072313 L 240.944884423,327.933072313 L 240.944884423,366.555119618 L 216.141735239,366.555119618 L 216.141735239,416.515748422 L 240.944884423,416.515748422 L 240.944884423,455.137795727 L 216.141735239,455.137795727 L 216.141735239,505.098424531 L 240.944884423,505.098424531 L 240.944884423,543.720471836 L 216.141735239,543.720471836 L 216.141735239,570.472439675 "
       style="stroke:#000000;fill:none"
       inkscape:label="part" />
    <path
       id="path3002"
       d="M 216.141735239,570.472439675 L 197.657482034,570.472439675 L 197.657482034,595.275588859 L 159.03543473,595.275588859 L 159.03543473,570.472439675 L 117.34252056,570.472439675 L 117.34252056,595.275588859 L 78.7204732551,595.275588859 L 78.7204732551,570.472439675 L 60.2362200498,570.472439675 "
       style="stroke:#000000;fill:none"
       inkscape:label="part" />
    <path
       id="path3004"
       d="M 60.2362200498,570.472439675 L 60.2362200498,543.720471836 L 35.433070866,543.720471836 L 35.433070866,505.098424531 L 60.2362200498,505.098424531 L 60.2362200498,455.137795727 L 35.433070866,455.137795727 L 35.433070866,416.515748422 L 60.2362200498,416.515748422 L 60.2362200498,366.555119618 L 35.433070866,366.555119618 L 35.433070866,327.933072313 L 60.2362200498,327.933072313 L 60.2362200498,301.181104473 "
       style="stroke:#000000;fill:none"
       inkscape:label="part" />
    <path
       id="path3006"
       d="M 276.377955289,276.377955289 L 323.444885439,276.377955289 L 323.444885439,301.181104473 L 355.688979866,301.181104473 L 355.688979866,276.377955289 L 404.350398235,276.377955289 L 404.350398235,301.181104473 L 436.594492662,301.181104473 L 436.594492662,276.377955289 L 485.255911031,276.377955289 L 485.255911031,301.181104473 L 517.500005458,301.181104473 L 517.500005458,276.377955289 L 566.161423827,276.377955289 L 566.161423827,301.181104473 L 598.405518254,301.181104473 L 598.405518254,276.377955289 L 647.066936623,276.377955289 L 647.066936623,301.181104473 L 679.31103105,301.181104473 L 679.31103105,276.377955289 L 726.3779612,276.377955289 "
       style="stroke:#000000;fill:none"
       inkscape:label="part" />
    <path
       id="path3008"
       d="M 726.3779612,276.377955289 L 726.3779612,331.122048752 L 701.574812016,331.122048752 L 701.574812016,363.366143179 L 726.3779612,363.366143179 L 726.3779612,419.704724861 L 701.574812016,419.704724861 L 701.574812016,451.948819288 L 726.3779612,451.948819288 L 726.3779612,508.28740097 L 701.574812016,508.28740097 L 701.574812016,540.531495397 L 726.3779612,540.531495397 L 726.3779612,595.275588859 "
       style="stroke:#000000;fill:none"
       inkscape:label="part" />
    <path
       id="path3010"
       d="M 726.3779612,595.275588859 L 679.31103105,595.275588859 L 679.31103105,570.472439675 L 647.066936623,570.472439675 L 647.066936623,595.275588859 L 598.405518254,595.275588859 L 598.405518254,570.472439675 L 566.161423827,570.472439675 L 566.161423827,595.275588859 L 517.500005458,595.275588859 L 517.500005458,570.472439675 L 485.255911031,570.472439675 L 485.255911031,595.275588859 L 436.594492662,595.275588859 L 436.594492662,570.472439675 L 404.350398235,570.472439675 L 404.350398235,595.275588859 L 355.688979866,595.275588859 L 355.688979866,570.472439675 L 323.444885439,570.472439675 L 323.444885439,595.275588859 L 276.377955289,595.275588859 "
       style="stroke:#000000;fill:none"
       inkscape:label="part" />
    <path
       id="path3012"
       d="M 276.377955289,595.275588859 L 276.377955289,540.531495397 L 301.181104473,540.531495397 L 301.181104473,508.28740097 L 276.377955289,508.28740097 L 276.377955289,451.948819288 L 301.181104473,451.948819288 L 301.181104473,419.704724861 L 276.377955289,419.704724861 L 276.377955289,363.366143179 L 301.181104473,363.366143179 L 301.181104473,331.122048752 L 276.377955289,331.122048752 L 276.377955289,276.377955289 "
       style="stroke:#000000;fill:none"
       inkscape:label="part" />
    <path
       id="path3014"
       d="M 786.61418125,301.181104473 L 805.098434455,301.181104473 L 805.098434455,276.377955289 L 843.720481759,276.377955289 L 843.720481759,301.181104473 L 885.413395929,301.181104473 L 885.413395929,276.377955289 L 924.035443234,276.377955289 L 924.035443234,301.181104473 L 942.519696439,301.181104473 "
       style="stroke:#000000;fill:none"
       inkscape:label="part" />
    <path
       id="path3016"
       d="M 942.519696439,301.181104473 L 942.519696439,327.933072313 L 967.322845623,327.933072313 L 967.322845623,366.555119618 L 942.519696439,366.555119618 L 942.519696439,416.515748422 L 967.322845623,416.515748422 L 967.322845623,455.137795727 L 942.519696439,455.137795727 L 942.519696439,505.098424531 L 967.322845623,505.098424531 L 967.322845623,543.720471836 L 942.519696439,543.720471836 L 942.519696439,570.472439675 "
       style="stroke:#000000;fill:none"
       inkscape:label="part" />
    <path
       id="path3018"
       d="M 942.519696439,570.472439675 L 924.035443234,570.472439675 L 924.035443234,595.275588859 L 885.413395929,595.275588859 L 885.413395929,570.472439675 L 843.720481759,570.472439675 L 843.720481759,595.275588859 L 805.098434455,595.275588859 L 805.098434455,570.472439675 L 786.61418125,570.472439675 "
       style="stroke:#000000;fill:none"
       inkscape:label="part" />
    <path
       id="path3020"
       d="M 786.61418125,570.472439675 L 786.61418125,543.720471836 L 761.811032066,543.720471836 L 761.811032066,505.098424531 L 786.61418125,505.098424531 L 786.61418125,455.137795727 L 761.811032066,455.137795727 L 761.811032066,416.515748422 L 786.61418125,416.515748422 L 786.61418125,366.555119618 L 761.811032066,366.555119618 L 761.811032066,327.933072313 L 786.61418125,327.933072313 L 786.61418125,301.181104473 "
       style="stroke:#000000;fill:none"
       inkscape:label="part" />
    <path
       id="path3022"
       d="M 1002.75591649,276.377955289 L 1049.82284664,276.377955289 L 1049.82284664,301.181104473 L 1082.06694107,301.181104473 L 1082.06694107,276.377955289 L 1130.72835943,276.377955289 L 1130.72835943,301.181104473 L 1162.97245386,301.181104473 L 1162.97245386,276.377955289 L 1211.63387223,276.377955289 L 1211.63387223,301.181104473 L 1243.87796666,301.181104473 L 1243.87796666,276.377955289 L 1292.53938503,276.377955289 L 1292.53938503,301.181104473 L 1324.78347945,301.181104473 L 1324.78347945,276.377955289 L 1373.44489782,276.377955289 L 1373.44489782,301.181104473 L 1405.68899225,301.181104473 L 1405.68899225,276.377955289 L 1452.7559224,276.377955289 "
       style="stroke:#000000;fill:none"
       inkscape:label="part" />
    <path
       id="path3024"
       d="M 1452.7559224,276.377955289 L 1452.7559224,331.122048752 L 1427.95277322,331.122048752 L 1427.95277322,363.366143179 L 1452.7559224,363.366143179 L 1452.7559224,419.704724861 L 1427.95277322,419.704724861 L 1427.95277322,451.948819288 L 1452.7559224,451.948819288 L 1452.7559224,508.28740097 L 1427.95277322,508.28740097 L 1427.95277322,540.531495397 L 1452.7559224,540.531495397 L 1452.7559224,595.275588859 "
       style="stroke:#000000;fill:none"
       inkscape:label="part" />
    <path
       id="path3026"
       d="M 1452.7559224,595.275588859 L 1405.68899225,595.275588859 L 1405.68899225,570.472439675 L 1373.44489782,570.472439675 L 1373.44489782,595.275588859 L 1324.78347945,595.275588859 L 1324.78347945,570.472439675 L 1292.53938503,570.472439675 L 1292.53938503,595.275588859 L 1243.87796666,595.275588859 L 1243.87796666,570.472439675 L 1211.63387223,570.472439675 L 1211.63387223,595.275588859 L 1162.97245386,595.275588859 L 1162.97245386,570.472439675 L 1130.72835943,570.472439675 L 1130.72835943,595.275588859 L 1082.06694107,595.275588859 L 1082.06694107,570.472439675 L 1049.82284664,570.472439675 L 1049.82284664,595.275588859 L 1002.75591649,595.275588859 "
       style="stroke:#000000;fill:none"
       inkscape:label="part" />
    <path
       id="path3028"
       d="M 1002.75591649,595.275588859 L 1002.75591649,540.531495397 L 1027.55906567,540.531495397 L 1027.55906567,508.28740097 L 1002.75591649,508.28740097 L 1002.75591649,451.948819288 L 1027.55906567,451.948819288 L 1027.55906567,419.704724861 L 1002.75591649,419.704724861 L 1002.75591649,363.366143179 L 1027.55906567,363.366143179 L 1027.55906567,331.122048752 L 1002.75591649,331.122048752 L 1002.75591649,276.377955289 "
       style="stroke:#000000;fill:none"
       inkscape:label="part" />
    <path
       id="path3030"
       d="M 276.377955289,60.2362200498 L 320.255909,60.2362200498 L 320.255909,35.433070866 L 358.877956305,35.433070866 L 358.877956305,60.2362200498 L 401.161421796,60.2362200498 L 401.161421796,35.433070866 L 439.783469101,35.433070866 L 439.783469101,60.2362200498 L 482.066934592,60.2362200498 L 482.066934592,35.433070866 L 520.688981897,35.433070866 L 520.688981897,60.2362200498 L 562.972447388,60.2362200498 L 562.972447388,35.433070866 L 601.594494693,35.433070866 L 601.594494693,60.2362200498 L 643.877960184,60.2362200498 L 643.877960184,35.433070866 L 682.500007489,35.433070866 L 682.500007489,60.2362200498 L 726.3779612,60.2362200498 "
       style="stroke:#000000;fill:none"
       inkscape:label="part" />
    <path
       id="path3032"
       d="M 726.3779612,60.2362200498 L 726.3779612,81.9094496937 L 701.574812016,81.9094496937 L 701.574812016,114.153544121 L 726.3779612,114.153544121 L 726.3779612,162.224411168 L 701.574812016,162.224411168 L 701.574812016,194.468505596 L 726.3779612,194.468505596 L 726.3779612,216.141735239 "
       style="stroke:#000000;fill:none"
       inkscape:label="part" />
    <path
       id="path3034"
       d="M 726.3779612,216.141735239 L 682.500007489,216.141735239 L 682.500007489,240.944884423 L 643.877960184,240.944884423 L 643.877960184,216.141735239 L 601.594494693,216.141735239 L 601.594494693,240.944884423 L 562.972447388,240.944884423 L 562.972447388,216.141735239 L 520.688981897,216.141735239 L 520.688981897,240.944884423 L 482.066934592,240.944884423 L 482.066934592,216.141735239 L 439.783469101,216.141735239 L 439.783469101,240.944884423 L 401.161421796,240.944884423 L 401.161421796,216.141735239 L 358.877956305,216.141735239 L 358.877956305,240.944884423 L 320.255909,240.944884423 L 320.255909,216.141735239 L 276.377955289,216.141735239 "
       style="stroke:#000000;fill:none"
       inkscape:label="part" />
    <path
       id="path3036"
       d="M 276.377955289,216.141735239 L 276.377955289,194.468505596 L 301.181104473,194.468505596 L 301.181104473,162.224411168 L 276.377955289,162.224411168 L 276.377955289,114.153544121 L 301.181104473,114.153544121 L 301.181104473,81.9094496937 L 276.377955289,81.9094496937 L 276.377955289,60.2362200498 "
       style="stroke:#000000;fill:none"
       inkscape:label="part" />
  </g>
  <g
     id="g3038"
     inkscape:groupmode="layer"
     inkscape:label="newlayer" />
</svg>
